<svg xmlns="http://www.w3.org/2000/svg" viewBox="0 0 1000 34" width="1000" height="34" role="img" aria-label="divider"><defs>
<linearGradient id="g" gradientUnits="userSpaceOnUse" x1="0" y1="0" x2="1000" y2="0"><stop offset="0" stop-color="#ffb454"/><stop offset=".5" stop-color="#bb9af7"/><stop offset="1" stop-color="#7dcfff"/></linearGradient>
<linearGradient id="f" gradientUnits="userSpaceOnUse" x1="0" y1="0" x2="1000" y2="0"><stop offset="0" stop-color="#000"/><stop offset=".18" stop-color="#fff"/><stop offset=".82" stop-color="#fff"/><stop offset="1" stop-color="#000"/></linearGradient>
<mask id="m"><rect width="1000" height="34" fill="url(#f)"/></mask>
<filter id="glow" x="-20%" y="-100%" width="140%" height="300%"><feGaussianBlur stdDeviation="2" result="b"/><feMerge><feMergeNode in="b"/><feMergeNode in="SourceGraphic"/></feMerge></filter>
</defs>
<g mask="url(#m)"><g filter="url(#glow)"><path d="M0 24 H0 V10 H40 V24 H80 V10 H120 V24 H160 V10 H200 V24 H240 V10 H280 V24 H320 V10 H360 V24 H400 V10 H440 V24 H480 V10 H520 V24 H560 V10 H600 V24 H640 V10 H680 V24 H720 V10 H760 V24 H800 V10 H840 V24 H880 V10 H920 V24 H960 V10 H1000 V24 H1040 V10 H1080 V24 H1120 V10 H1160 V24 H1160" fill="none" stroke="url(#g)" stroke-width="1.8" stroke-linejoin="round"><animateTransform attributeName="transform" type="translate" from="0 0" to="-80 0" dur="2.4s" repeatCount="indefinite"/></path></g></g>
</svg>